<svg width="135" height="23" viewBox="0 0 135 23" fill="none" xmlns="http://www.w3.org/2000/svg">
<path d="M0.758893 1.76284H6.03557L11.6087 15.3597H11.8459L17.419 1.76284H22.6957V22H18.5455V8.82806H18.3775L13.1403 21.9012H10.3142L5.07708 8.77866H4.90909V22H0.758893V1.76284ZM26.1418 22V6.82213H30.2228V9.47036H30.3809C30.6576 8.52833 31.122 7.81686 31.7742 7.33597C32.4264 6.84848 33.1774 6.60474 34.0272 6.60474C34.238 6.60474 34.4653 6.61792 34.709 6.64427C34.9527 6.67062 35.1668 6.70685 35.3513 6.75296V10.4881C35.1537 10.4289 34.8803 10.3762 34.5311 10.33C34.182 10.2839 33.8625 10.2609 33.5726 10.2609C32.9534 10.2609 32.4 10.3959 31.9126 10.666C31.4317 10.9295 31.0496 11.2984 30.7663 11.7727C30.4896 12.247 30.3513 12.7938 30.3513 13.413V22H26.1418ZM37.6067 22V1.76284H45.7095C47.1983 1.76284 48.4401 1.98353 49.4348 2.4249C50.4295 2.86627 51.1772 3.47892 51.6779 4.26284C52.1785 5.04018 52.4289 5.9361 52.4289 6.95059C52.4289 7.74111 52.2708 8.4361 51.9545 9.03557C51.6383 9.62846 51.2036 10.1159 50.6502 10.498C50.1034 10.8735 49.4776 11.1403 48.7727 11.2984V11.496C49.5435 11.529 50.2648 11.7464 50.9368 12.1482C51.6153 12.5501 52.1654 13.1133 52.587 13.8379C53.0086 14.556 53.2194 15.4124 53.2194 16.4071C53.2194 17.4809 52.9526 18.4394 52.419 19.2826C51.892 20.1192 51.1113 20.7813 50.0771 21.2688C49.0428 21.7563 47.7681 22 46.253 22H37.6067ZM41.8854 18.502H45.3735C46.5659 18.502 47.4354 18.2747 47.9822 17.8202C48.529 17.359 48.8024 16.7464 48.8024 15.9822C48.8024 15.4223 48.6673 14.9282 48.3972 14.5C48.1271 14.0718 47.7418 13.7358 47.2411 13.4921C46.747 13.2484 46.1574 13.1265 45.4723 13.1265H41.8854V18.502ZM41.8854 10.2312H45.0573C45.6436 10.2312 46.164 10.1291 46.6186 9.9249C47.0797 9.7141 47.442 9.41765 47.7055 9.03557C47.9756 8.65349 48.1107 8.19565 48.1107 7.66206C48.1107 6.93083 47.8505 6.34124 47.33 5.89328C46.8162 5.44532 46.085 5.22134 45.1364 5.22134H41.8854V10.2312ZM55.9244 22V6.82213H60.0054V9.47036H60.1635C60.4402 8.52833 60.9046 7.81686 61.5568 7.33597C62.209 6.84848 62.96 6.60474 63.8098 6.60474C64.0206 6.60474 64.2479 6.61792 64.4916 6.64427C64.7353 6.67062 64.9494 6.70685 65.1339 6.75296V10.4881C64.9363 10.4289 64.6629 10.3762 64.3137 10.33C63.9646 10.2839 63.6451 10.2609 63.3552 10.2609C62.736 10.2609 62.1826 10.3959 61.6952 10.666C61.2143 10.9295 60.8322 11.2984 60.5489 11.7727C60.2722 12.247 60.1339 12.7938 60.1339 13.413V22H55.9244ZM67.3103 22V6.82213H71.5198V22H67.3103ZM69.4249 4.86561C68.7991 4.86561 68.2622 4.6581 67.8142 4.24308C67.3729 3.82147 67.1522 3.31752 67.1522 2.73122C67.1522 2.15151 67.3729 1.65415 67.8142 1.23913C68.2622 0.817522 68.7991 0.606718 69.4249 0.606718C70.0507 0.606718 70.5843 0.817522 71.0257 1.23913C71.4737 1.65415 71.6976 2.15151 71.6976 2.73122C71.6976 3.31752 71.4737 3.82147 71.0257 4.24308C70.5843 4.6581 70.0507 4.86561 69.4249 4.86561Z" fill="#060606"/>
<path d="M92.8266 8.84783H88.4985C88.4195 8.28788 88.2581 7.79051 88.0143 7.35573C87.7706 6.91436 87.4577 6.53887 87.0756 6.22925C86.6935 5.91963 86.2521 5.68248 85.7515 5.51779C85.2574 5.3531 84.7205 5.27075 84.1408 5.27075C83.0934 5.27075 82.181 5.53096 81.4037 6.05138C80.6263 6.56522 80.0236 7.3162 79.5954 8.30435C79.1672 9.2859 78.9531 10.4783 78.9531 11.8814C78.9531 13.3241 79.1672 14.5362 79.5954 15.5178C80.0301 16.4993 80.6362 17.2404 81.4135 17.7411C82.1909 18.2418 83.0901 18.4921 84.1112 18.4921C84.6843 18.4921 85.2146 18.4163 85.7021 18.2648C86.1962 18.1133 86.6342 17.8926 87.0163 17.6028C87.3984 17.3063 87.7146 16.9473 87.9649 16.5257C88.2218 16.1041 88.3997 15.6232 88.4985 15.083L92.8266 15.1028C92.7146 16.0316 92.4346 16.9275 91.9867 17.7905C91.5453 18.6469 90.9491 19.4144 90.1981 20.0929C89.4537 20.7648 88.5644 21.2984 87.5301 21.6937C86.5025 22.0823 85.3398 22.2767 84.042 22.2767C82.237 22.2767 80.623 21.8682 79.2001 21.0514C77.7838 20.2345 76.6639 19.052 75.8404 17.504C75.0236 15.9559 74.6151 14.0817 74.6151 11.8814C74.6151 9.67457 75.0301 7.7971 75.8602 6.24901C76.6902 4.70092 77.8167 3.52174 79.2396 2.71146C80.6626 1.8946 82.2633 1.48616 84.042 1.48616C85.2146 1.48616 86.3016 1.65085 87.3029 1.98024C88.3108 2.30962 89.2034 2.79051 89.9807 3.42292C90.7581 4.04875 91.3905 4.8162 91.878 5.7253C92.372 6.63439 92.6882 7.67523 92.8266 8.84783ZM102.673 22.2964C101.139 22.2964 99.8111 21.9704 98.6912 21.3182C97.5779 20.6594 96.7182 19.7437 96.1122 18.5711C95.5061 17.392 95.2031 16.025 95.2031 14.4704C95.2031 12.9025 95.5061 11.5323 96.1122 10.3597C96.7182 9.1805 97.5779 8.26482 98.6912 7.61265C99.8111 6.95389 101.139 6.62451 102.673 6.62451C104.208 6.62451 105.532 6.95389 106.646 7.61265C107.766 8.26482 108.629 9.1805 109.235 10.3597C109.841 11.5323 110.144 12.9025 110.144 14.4704C110.144 16.025 109.841 17.392 109.235 18.5711C108.629 19.7437 107.766 20.6594 106.646 21.3182C105.532 21.9704 104.208 22.2964 102.673 22.2964ZM102.693 19.0356C103.391 19.0356 103.974 18.8379 104.442 18.4427C104.91 18.0408 105.262 17.4941 105.5 16.8024C105.743 16.1107 105.865 15.3235 105.865 14.4407C105.865 13.558 105.743 12.7708 105.5 12.0791C105.262 11.3874 104.91 10.8406 104.442 10.4387C103.974 10.0369 103.391 9.83597 102.693 9.83597C101.988 9.83597 101.395 10.0369 100.915 10.4387C100.44 10.8406 100.081 11.3874 99.8375 12.0791C99.6003 12.7708 99.4817 13.558 99.4817 14.4407C99.4817 15.3235 99.6003 16.1107 99.8375 16.8024C100.081 17.4941 100.44 18.0408 100.915 18.4427C101.395 18.8379 101.988 19.0356 102.693 19.0356ZM119.739 22.2964C118.204 22.2964 116.876 21.9704 115.756 21.3182C114.643 20.6594 113.783 19.7437 113.177 18.5711C112.571 17.392 112.268 16.025 112.268 14.4704C112.268 12.9025 112.571 11.5323 113.177 10.3597C113.783 9.1805 114.643 8.26482 115.756 7.61265C116.876 6.95389 118.204 6.62451 119.739 6.62451C121.274 6.62451 122.598 6.95389 123.711 7.61265C124.831 8.26482 125.694 9.1805 126.3 10.3597C126.906 11.5323 127.209 12.9025 127.209 14.4704C127.209 16.025 126.906 17.392 126.3 18.5711C125.694 19.7437 124.831 20.6594 123.711 21.3182C122.598 21.9704 121.274 22.2964 119.739 22.2964ZM119.758 19.0356C120.457 19.0356 121.04 18.8379 121.507 18.4427C121.975 18.0408 122.328 17.4941 122.565 16.8024C122.808 16.1107 122.93 15.3235 122.93 14.4407C122.93 13.558 122.808 12.7708 122.565 12.0791C122.328 11.3874 121.975 10.8406 121.507 10.4387C121.04 10.0369 120.457 9.83597 119.758 9.83597C119.054 9.83597 118.461 10.0369 117.98 10.4387C117.505 10.8406 117.146 11.3874 116.903 12.0791C116.666 12.7708 116.547 13.558 116.547 14.4407C116.547 15.3235 116.666 16.1107 116.903 16.8024C117.146 17.4941 117.505 18.0408 117.98 18.4427C118.461 18.8379 119.054 19.0356 119.758 19.0356ZM134.156 1.76284V22H129.946V1.76284H134.156Z" fill="#1057E0"/>
</svg>
